<?xml version="1.0" encoding="UTF-8"?>
<svg width="752pt" height="752pt" version="1.1" viewBox="0 0 752 752" xmlns="http://www.w3.org/2000/svg">
 <g>
  <rect width="752" height="752" fill="#c362dd"/>
  <path d="m358.95 346.56c-28.379 28.379-31.434 72.418-9.2969 104.25l-0.19141-0.17578-108.08 108.08v31.336h31.336l19.48-19.48 3.8125-17.078 32.746-3.8125v-26.113l48.008-48.008-0.28906-0.26562c31.145 17.66 71.391 13.297 97.941-13.254 31.887-31.887 31.887-83.586 0-115.47-31.887-31.887-83.586-31.887-115.47 0zm88.656 57.324c-8.4258 8.4258-22.09 8.4258-30.516 0-8.4258-8.4258-8.4258-22.09 0-30.516 8.4258-8.4258 22.09-8.4258 30.516 0 8.4297 8.4297 8.4297 22.09 0 30.516z" fill="#007335"/>
  <path d="m532.74 295.11c3.7344-11.75 5.2812-23.953 4.5547-36.52-3.2812-52.82-50.363-96.172-105.01-96.629h-0.82031c-44.078 0-83.422 26.957-98.906 65.938-16.211-12.75-37.066-19.035-58.379-17.031-30.234 2.8242-56.555 23.043-67.211 51.457-4.6445 12.566-5.8281 25.41-3.5508 38.434-27.777 13.023-45.992 40.711-45.992 71.035 0 42.715 32.695 73.953 78.23 75.59 13.844 19.762 47.906 23.953 57.012 23.953 3.8555 0 7.5234-0.17969 10.762-0.44531l23.297-23.297c-18.227-37.691-11.082-83.496 19.336-113.91 18.859-18.863 43.938-29.25 70.613-29.25s51.754 10.387 70.613 29.25c18.863 18.855 29.25 43.938 29.25 70.617 0 20.395-6.1133 39.832-17.406 56.293l10.379-0.54688c55.465-5.3711 85.066-54.734 85.066-88.25 0-36.973-25.867-68.211-61.84-76.684z" fill="#007335"/>
 </g>
</svg>
