<?xml version="1.0" encoding="UTF-8"?>
<svg width="752pt" height="752pt" version="1.1" viewBox="0 0 752 752" xmlns="http://www.w3.org/2000/svg">
 <g>
  <rect width="752" height="752" fill="#4c25e0"/>
  <path d="m604.03 357.38-35.141-33.473h-162.93l73.016-66.918-50.371-52.754-95.789 82.852c-16.527-11.684-36.621-18.801-58.34-18.754-28.887-0.0625-54.945 11.887-73.551 31.289l-7.0625-7.3984-52.164 49.738 30.461 31.48c1.332 56 46.578 103.7 102.31 103.79 37.816-0.070313 70.773-15.988 88.41-49.141h41.402l32.805-35.516 25.094 23.742 24.086-24.773 24.758 24.402 25.094-25.25 25.09 24.996 42.832-41.863c6.1797-6.4492 6.3359-10.031-0.011718-16.453zm-351.36 75.238-88.973-92.703 28.129-25.742 63.84 66.215 174.66-154.71 25.129 26.52z" fill="#007335"/>
 </g>
</svg>
